<?xml version="1.0" encoding="utf-8"?>
<svg viewBox="0 0 500 500" xmlns="http://www.w3.org/2000/svg">
  <defs>
    <filter data-v-10aac690="" id="logo-shadow" filterUnits="objectBoundingBox" x="-50%" y="-50%" width="200%" height="200%">
      <feOffset data-v-10aac690="" in="SourceAlpha" dx="-10" dy="25" result="ALPHA1"/>
      <feMorphology data-v-10aac690="" in="ALPHA1" operator="dilate" radius="15" result="ALPHA"/>
      <feGaussianBlur data-v-10aac690="" in="ALPHA" stdDeviation="20" result="DROP"/>
      <feFlood data-v-10aac690="" in="DROP" flood-color="#333" result="SOLID"/>
      <feComposite data-v-10aac690="" in="DROP" in2="SOLID" operator="in" result="SHADOW1"/>
      <feComponentTransfer data-v-10aac690="" in="SHADOW1" result="SHADOW">
        <feFuncA data-v-10aac690="" type="linear" slope="0.55"/>
      </feComponentTransfer>
      <feMerge data-v-10aac690="">
        <feMergeNode data-v-10aac690="" in="SHADOW"/>
        <feMergeNode data-v-10aac690="" in="SourceGraphic"/>
      </feMerge>
    </filter>
  </defs>
  <g data-v-10aac690="" transform="matrix(0.530863, 0, 0, 0.511404, -215.157043, -63.993134)" style="">
    <g data-v-10aac690="" filter="url(#logo-shadow)" class="logo-dark-v" transform="matrix(1.107813, 0, 0, 1.081992, 208.30397, -75.830093)" style="">
      <path data-v-10aac690="" fill="#34495E" d="M747 311L602 562 458 311H227l375 651 376-651z"/>
    </g>
    <g data-v-10aac690="" filter="url(#logo-shadow)" class="logo-purple-v" transform="matrix(1.107813, 0, 0, 1.081992, 208.30397, -75.830093)" style="">
      <path data-v-10aac690="" fill="#563D7C" fill-rule="nonzero" d="M219 195h762L599 857z"/>
      <path data-v-10aac690="" fill="#ffffff" d="M501 282l132 0c25,0 44,5 59,16 15,12 22,28 22,51 0,14 -3,26 -10,35 -7,10 -16,18 -29,23l0 1c17,3 30,11 38,24 9,12 13,27 13,46 0,11 -2,21 -6,30 -3,9 -9,17 -17,24 -9,6 -19,12 -32,16 -12,4 -28,6 -45,6l-125 0 0 -272 0 0zm48 114l77 0c12,0 21,-4 29,-10 8,-7 11,-16 11,-28 0,-14 -3,-24 -10,-29 -7,-6 -17,-9 -30,-9l-77 0 0 76 0 0zm0 119l84 0c14,0 26,-4 33,-11 8,-8 13,-19 13,-32 0,-14 -4,-24 -13,-31 -8,-8 -19,-11 -33,-11l-84 0 0 85z" class="logo-white-b"/>
    </g>
    <g data-v-10aac690="" filter="url(#logo-shadow)" class="logo-green-v" transform="matrix(1.107813, 0, 0, 1.081992, 208.30397, -75.830093)" style="">
      <path data-v-10aac690="" fill="#41B883" d="M839 357L600 771 361 357H202l398 690 398-690z"/>
    </g>
  </g>
</svg>