<?xml version="1.0" encoding="utf-8"?>
<!-- Generator: Adobe Illustrator 25.0.1, SVG Export Plug-In . SVG Version: 6.00 Build 0)  -->
<svg version="1.0" id="katman_1" xmlns="http://www.w3.org/2000/svg" xmlns:xlink="http://www.w3.org/1999/xlink" x="0px" y="0px"
	 viewBox="0 0 800 600" style="enable-background:new 0 0 800 600;" xml:space="preserve">
<style type="text/css">
	.st0{fill-rule:evenodd;clip-rule:evenodd;fill:#FF2D20;}
</style>
<path class="st0" d="M325.3,243.8v82.5h29.8v14.2h-45.7v-96.7C309.5,243.8,325.3,243.8,325.3,243.8z M411.3,284.8v-8.7h15.1v64.4
	h-15.1v-8.7c-2,3.2-4.9,5.8-8.6,7.6c-3.7,1.8-7.5,2.8-11.3,2.8c-4.9,0-9.4-0.9-13.4-2.7c-3.9-1.7-7.5-4.2-10.4-7.4
	c-2.9-3.1-5.2-6.8-6.8-10.8c-1.6-4.1-2.5-8.5-2.4-13c0-4.5,0.8-8.8,2.4-12.9c1.6-4,3.9-7.7,6.8-10.8c2.9-3.2,6.5-5.7,10.4-7.4
	c4.1-1.8,8.5-2.7,13.4-2.7c3.8,0,7.5,0.9,11.3,2.8S409.3,281.6,411.3,284.8L411.3,284.8z M409.9,316.2c0.9-2.5,1.4-5.2,1.4-7.9
	c0-2.8-0.5-5.4-1.4-7.9c-0.9-2.4-2.2-4.6-3.9-6.5c-1.7-1.9-3.7-3.4-6-4.4c-2.3-1.1-5-1.7-7.8-1.7c-2.9,0-5.4,0.6-7.7,1.7
	c-2.3,1.1-4.3,2.6-5.9,4.4c-1.7,1.9-3,4.1-3.8,6.5c-0.9,2.5-1.3,5.2-1.3,7.9c0,2.8,0.4,5.4,1.3,7.9c0.9,2.5,2.1,4.7,3.8,6.5
	c1.7,1.9,3.7,3.4,5.9,4.4c2.3,1.1,4.9,1.7,7.7,1.7c2.9,0,5.5-0.6,7.8-1.7c2.3-1.1,4.3-2.6,6-4.4C407.7,320.8,409,318.6,409.9,316.2z
	 M438.2,340.5v-64.4h40.9v14.8h-25.8v49.6L438.2,340.5L438.2,340.5z M533.7,284.8v-8.7h15.1v64.4h-15.1v-8.7c-2,3.2-4.9,5.8-8.6,7.6
	c-3.7,1.8-7.5,2.8-11.3,2.8c-4.9,0-9.3-0.9-13.4-2.7c-3.9-1.7-7.5-4.2-10.4-7.4c-2.9-3.1-5.2-6.8-6.8-10.8c-1.6-4.1-2.5-8.5-2.4-13
	c0-4.5,0.8-8.8,2.4-12.9c1.6-4,3.8-7.7,6.8-10.8c2.9-3.2,6.5-5.7,10.4-7.4c4.1-1.8,8.5-2.7,13.4-2.7c3.8,0,7.5,0.9,11.3,2.8
	C528.8,279.1,531.7,281.6,533.7,284.8z M532.3,316.2c0.9-2.5,1.4-5.2,1.4-7.9c0-2.8-0.5-5.4-1.4-7.9c-0.9-2.4-2.2-4.6-3.9-6.5
	c-1.7-1.9-3.7-3.4-6-4.4c-2.3-1.1-5-1.7-7.8-1.7c-2.9,0-5.4,0.6-7.7,1.7c-2.3,1.1-4.3,2.6-5.9,4.4c-1.7,1.9-3,4.1-3.8,6.5
	c-0.9,2.5-1.3,5.2-1.3,7.9c0,2.8,0.4,5.4,1.3,7.9c0.9,2.5,2.1,4.7,3.8,6.5c1.7,1.9,3.7,3.4,5.9,4.4c2.3,1.1,4.9,1.7,7.7,1.7
	c2.9,0,5.5-0.6,7.8-1.7c2.3-1.1,4.3-2.6,6-4.4C530.2,320.8,531.5,318.6,532.3,316.2z M609.2,276.1h15.3l-24.7,64.4h-18.9L556,276.1
	h15.3l18.9,49.3L609.2,276.1z M657.3,274.5c20.5,0,34.5,18.2,31.9,39.4h-50c0,5.6,5.6,16.3,18.9,16.3c11.5,0,19.1-10.1,19.1-10.1
	l10.2,7.9c-9.1,9.7-16.5,14.2-28.2,14.2c-20.8,0-35-13.2-35-33.9C624.2,289.6,638.8,274.5,657.3,274.5L657.3,274.5z M639.2,302.7
	h36.1c-0.1-1.2-2.1-16.3-18.2-16.3C641.1,286.4,639.3,301.5,639.2,302.7z M698.9,340.5v-96.7H714v96.7H698.9z"/>
<path class="st0" d="M282.9,228.5c0.1,0.3,0.1,0.5,0.1,0.8v40.4c0,1.1-0.6,2-1.5,2.6l-33.9,19.5v38.7c0,1.1-0.6,2-1.5,2.6
	l-70.7,40.7c-0.2,0.1-0.3,0.2-0.5,0.2c-0.1,0-0.1,0.1-0.2,0.1c-0.5,0.1-1,0.1-1.5,0c-0.1,0-0.2-0.1-0.2-0.1
	c-0.2-0.1-0.3-0.1-0.5-0.2l-70.7-40.7c-0.9-0.5-1.5-1.5-1.5-2.6V209.3c0-0.3,0-0.5,0.1-0.8c0-0.1,0.1-0.2,0.1-0.2
	c0.1-0.2,0.1-0.3,0.2-0.5c0.1-0.1,0.1-0.2,0.2-0.3c0.1-0.1,0.2-0.2,0.3-0.3c0.1-0.1,0.2-0.1,0.3-0.2c0.1-0.1,0.2-0.2,0.3-0.3h0
	l35.3-20.3c0.9-0.5,2-0.5,2.9,0l35.3,20.3h0c0.1,0.1,0.2,0.2,0.3,0.3c0.1,0.1,0.2,0.1,0.3,0.2c0.1,0.1,0.2,0.2,0.3,0.3
	c0.1,0.1,0.1,0.2,0.2,0.3c0.1,0.1,0.1,0.3,0.2,0.5c0,0.1,0.1,0.2,0.1,0.3c0.1,0.3,0.1,0.5,0.1,0.8v75.6l29.5-17v-38.7
	c0-0.3,0-0.5,0.1-0.8c0-0.1,0.1-0.2,0.1-0.3c0.1-0.2,0.1-0.3,0.2-0.5c0.1-0.1,0.1-0.2,0.2-0.3c0.1-0.1,0.2-0.2,0.3-0.3
	c0.1-0.1,0.2-0.1,0.3-0.2c0.1-0.1,0.2-0.2,0.3-0.3h0l35.3-20.3c0.9-0.5,2-0.5,2.9,0l35.3,20.3c0.1,0.1,0.2,0.2,0.3,0.3
	c0.1,0.1,0.2,0.1,0.3,0.2c0.1,0.1,0.2,0.2,0.3,0.3c0.1,0.1,0.1,0.2,0.2,0.3c0.1,0.1,0.1,0.3,0.2,0.5
	C282.9,228.4,282.9,228.4,282.9,228.5z M277.1,267.9v-33.6l-12.4,7.1l-17.1,9.8v33.6L277.1,267.9L277.1,267.9z M241.8,328.7v-33.6
	l-16.8,9.6l-48,27.4V366C177,366,241.8,328.7,241.8,328.7z M106.3,214.4v114.3l64.8,37.3v-33.9l-33.9-19.2l0,0l0,0
	c-0.1-0.1-0.2-0.2-0.3-0.2c-0.1-0.1-0.2-0.1-0.3-0.2l0,0c-0.1-0.1-0.2-0.2-0.2-0.3c-0.1-0.1-0.2-0.2-0.2-0.3l0,0
	c-0.1-0.1-0.1-0.2-0.2-0.4c0-0.1-0.1-0.2-0.1-0.3v0c0-0.1,0-0.3-0.1-0.4c0-0.1,0-0.2,0-0.3v0v-79l-17.1-9.8L106.3,214.4L106.3,214.4
	z M138.7,192.3l-29.4,17l29.4,17l29.4-17L138.7,192.3L138.7,192.3z M154,298.1l17.1-9.8v-73.9l-12.4,7.1l-17.1,9.8v73.9
	C141.7,305.3,154,298.1,154,298.1z M244.7,212.3l-29.4,17l29.4,17l29.4-17C274.2,229.3,244.7,212.3,244.7,212.3z M241.8,251.4
	l-17.1-9.8l-12.4-7.1v33.6l17.1,9.8l12.4,7.1C241.8,284.9,241.8,251.4,241.8,251.4z M174,327l43.2-24.7l21.6-12.3l-29.4-16.9
	l-33.9,19.5l-30.9,17.8C144.7,310.3,174,327,174,327z"/>
</svg>
